<svg version="1.1" id="Layer_1" xmlns="http://www.w3.org/2000/svg" xmlns:xlink="http://www.w3.org/1999/xlink" x="0px" y="0px"
	 width="100%" viewBox="0 0 512 512" enable-background="new 0 0 512 512" xml:space="preserve">
<path fill="#CAD4E6" opacity="1.000000" stroke="none" 
	d="
M357.000000,282.999847 
	C366.665192,282.999817 375.830475,282.978546 384.995575,283.005463 
	C395.014801,283.034851 401.018738,290.031921 400.999969,301.599457 
	C400.987122,309.509552 393.905884,315.997040 385.240112,315.997406 
	C285.256104,316.001434 185.272064,316.000671 85.288040,315.998230 
	C79.056068,315.998077 71.533951,310.182861 70.039993,304.235352 
	C68.219048,296.986084 71.464371,288.691498 77.878906,285.756042 
	C81.165642,284.251892 84.970352,283.117371 88.543037,283.111694 
	C177.861862,282.969238 267.180939,282.999847 357.000000,282.999847 
z"/>
<path fill="#CAD4E6" opacity="1.000000" stroke="none" 
	d="
M119.002220,369.000000 
	C186.986954,369.000000 254.472153,368.998901 321.957336,369.001282 
	C331.478821,369.001617 337.002380,375.067383 336.999908,385.497894 
	C336.997681,394.995728 331.187347,400.998596 321.976990,400.998840 
	C250.326050,401.000916 178.675110,401.001007 107.024178,400.998657 
	C97.941818,400.998352 90.983963,394.013275 90.999748,384.931824 
	C91.015450,375.899109 97.935791,369.009308 107.005150,369.000610 
	C110.837654,368.996948 114.670166,369.000000 119.002220,369.000000 
z"/>
<path fill="#CAD4E6" opacity="1.000000" stroke="none" 
	d="
M181.786713,116.706650 
	C185.504883,115.285553 188.957458,113.156784 192.416611,113.146103 
	C256.858673,112.947075 321.301483,112.999306 385.744141,113.000740 
	C395.605103,113.000961 401.005524,118.940887 400.999847,129.766876 
	C400.994965,139.158600 395.141815,144.999237 385.724762,144.999390 
	C321.615143,145.000488 257.505371,144.937683 193.396103,145.083939 
	C185.933792,145.100952 180.474289,142.500565 177.985992,135.550323 
	C175.823059,129.508942 175.966782,121.705208 181.786713,116.706650 
z"/>
<path fill="#CAD4E6" opacity="1.000000" stroke="none" 
	d="
M227.000000,197.999908 
	C237.658127,197.999969 247.820679,197.823059 257.972504,198.076065 
	C262.920532,198.199387 267.044708,200.089890 270.257599,204.493301 
	C274.524719,210.341599 273.895081,216.214890 271.346161,222.020142 
	C268.595886,228.284088 263.094025,230.977814 256.356598,230.986893 
	C231.710693,231.020111 207.064697,231.000076 182.418732,231.000092 
	C164.766891,231.000107 147.115051,231.006058 129.463211,230.997803 
	C119.182266,230.992996 112.998543,224.170609 113.000130,212.863968 
	C113.001381,203.954605 119.433624,198.002350 129.081848,198.001328 
	C161.554565,197.997879 194.027283,197.999954 227.000000,197.999908 
z"/>
<path fill="#97A6BF" opacity="1.000000" stroke="none" 
	d="
M355.000000,197.999405 
	C379.480133,197.999496 403.460297,197.995987 427.440430,198.001465 
	C437.099426,198.003677 443.954041,204.731277 444.000000,214.230682 
	C444.046783,223.902145 437.175079,230.953171 427.332825,230.974487 
	C395.859039,231.042648 364.384827,231.048721 332.911163,230.955322 
	C327.169342,230.938278 321.246552,231.120193 315.731262,229.827789 
	C307.540039,227.908264 303.249634,219.274857 305.110138,209.704041 
	C306.188354,204.157425 312.087433,197.743607 320.529602,197.935837 
	C331.847656,198.193588 343.176056,197.999496 355.000000,197.999405 
z"/>
<path fill="#97A6BF" opacity="1.000000" stroke="none" 
	d="
M74.781372,141.272827 
	C68.405319,133.392319 68.202942,124.777473 73.204376,119.049110 
	C75.730179,116.156219 80.140396,113.413940 83.804390,113.268448 
	C99.602493,112.641090 115.439857,112.965614 131.262711,113.015564 
	C138.564331,113.038612 144.652924,119.547272 145.071442,126.891891 
	C145.505066,134.501663 143.470398,140.559799 136.159531,143.889084 
	C134.587906,144.604797 132.711258,144.944550 130.972519,144.953506 
	C115.483047,145.033371 99.988739,145.189743 84.506607,144.843201 
	C81.332672,144.772171 78.203674,142.693375 74.781372,141.272827 
z"/>
<path fill="#97A6BF" opacity="1.000000" stroke="none" 
	d="
M436.644714,371.148926 
	C442.533417,375.145874 446.014709,383.564697 443.728699,389.471771 
	C441.298065,395.752747 436.471558,401.456696 428.161896,401.153961 
	C413.207916,400.609070 398.219818,401.017944 383.246002,400.992920 
	C375.254761,400.979584 369.317200,394.671600 368.921722,386.641052 
	C368.542358,378.937408 370.887390,373.089478 378.260864,369.963287 
	C379.708313,369.349670 381.396454,369.046844 382.975433,369.040161 
	C398.614471,368.973816 414.254669,368.927643 429.892426,369.084045 
	C432.050690,369.105621 434.197571,370.260620 436.644714,371.148926 
z"/>
</svg>